<svg xmlns="http://www.w3.org/2000/svg" width="120.437" height="62.038" viewBox="0 0 120.437 62.038">
    <defs>
        <style>
            .cls-1,.cls-2{fill:#0672ba}.cls-2{opacity:.25}
        </style>
    </defs>
    <g id="Travelist_Logo" data-name="Travelist Logo">
        <g id="Group_2975" data-name="Group 2975" transform="translate(43.408)">
            <path id="Rectangle_1712" d="M0 0h34.048v4.065H0z" class="cls-1" data-name="Rectangle 1712" transform="translate(0 1.105)"/>
            <path id="Rectangle_1713" d="M0 0h36.198v4.065H0z" class="cls-1" data-name="Rectangle 1713" transform="rotate(-90 23.697 12.501)"/>
            <path id="Rectangle_1714" d="M0 0h36.198v4.065H0z" class="cls-1" data-name="Rectangle 1714" transform="rotate(-90 26.829 9.369)"/>
            <path id="Rectangle_1715" d="M0 0h34.048v4.065H0z" class="cls-1" data-name="Rectangle 1715" transform="translate(0 7.369)"/>
            <path id="Rectangle_1716" d="M0 0h4.065v.997H0z" class="cls-2" data-name="Rectangle 1716" transform="translate(17.46 11.435)"/>
            <path id="Rectangle_1717" d="M0 0h4.065v.997H0z" class="cls-2" data-name="Rectangle 1717" transform="translate(11.196 11.435)"/>
            <path id="Rectangle_1718" d="M0 0h4.065v.997H0z" class="cls-2" data-name="Rectangle 1718" transform="translate(17.46 5.17)"/>
            <path id="Rectangle_1719" d="M0 0h4.065v.997H0z" class="cls-2" data-name="Rectangle 1719" transform="translate(11.196 5.17)"/>
        </g>
        <g id="Group_2782" data-name="Group 2782" transform="translate(0 43.665)">
            <path id="Path_12750" d="M466 888.081v3.332h-4.77v14.335h-3.483v-14.335H453v-3.332z" class="cls-1" data-name="Path 12750" transform="translate(-453 -887.728)"/>
            <path id="Path_12751" d="M484.278 905.748l-3.572-6.133h-2.637v6.133h-3.483v-17.667h7.066a5.859 5.859 0 0 1 5.881 5.856 5.377 5.377 0 0 1-.934 3.041 5.842 5.842 0 0 1-2.472 2.107l3.911 6.663zm-6.209-14.411v5.224h3.583a2.217 2.217 0 0 0 1.692-.77 2.648 2.648 0 0 0 .707-1.855 2.6 2.6 0 0 0-.707-1.843 2.235 2.235 0 0 0-1.692-.757z" class="cls-1" data-name="Path 12751" transform="translate(-459.645 -887.728)"/>
            <path id="Path_12752" d="M507.879 905.748l-1.123-3.18H499.5l-1.06 3.18h-3.76l6.184-17.667h4.316l6.233 17.667zm-7.246-6.436h4.972l-2.55-7.218z" class="cls-1" data-name="Path 12752" transform="translate(-465.83 -887.728)"/>
            <path id="Path_12753" d="M523.543 905.748l-5.931-17.667h3.788l4.32 13.583 4.28-13.583h3.81l-5.956 17.667z" class="cls-1" data-name="Path 12753" transform="translate(-472.89 -887.728)"/>
            <path id="Path_12754" d="M546.947 902.417h7.445v3.331h-10.928v-17.667h10.8v3.332h-7.319v3.761h6.688v3.281h-6.688z" class="cls-1" data-name="Path 12754" transform="translate(-480.848 -887.728)"/>
            <path id="Path_12755" d="M566.272 902.417h6.739v3.331h-10.222v-17.667h3.483z" class="cls-1" data-name="Path 12755" transform="translate(-486.797 -887.728)"/>
            <path id="Path_12756" d="M580.4 888.081h3.483v17.667H580.4z" class="cls-1" data-name="Path 12756" transform="translate(-492.218 -887.728)"/>
            <path id="Path_12757" d="M595.4 905.945a7.889 7.889 0 0 1-4.417-1.174 6.271 6.271 0 0 1-2.524-3.192l2.978-1.741a3.967 3.967 0 0 0 4.063 2.7 3.5 3.5 0 0 0 2.145-.529 1.668 1.668 0 0 0-.151-2.789 12.884 12.884 0 0 0-2.978-1.123 18.342 18.342 0 0 1-2.007-.707 8.619 8.619 0 0 1-1.64-.947 3.852 3.852 0 0 1-1.249-1.5 4.918 4.918 0 0 1-.429-2.12 4.731 4.731 0 0 1 1.7-3.823 6.18 6.18 0 0 1 4.1-1.426 6.825 6.825 0 0 1 3.773 1.047 7.039 7.039 0 0 1 2.537 2.915l-2.928 1.69a3.527 3.527 0 0 0-3.373-2.273 2.668 2.668 0 0 0-1.7.492 1.555 1.555 0 0 0-.618 1.274 1.607 1.607 0 0 0 .694 1.35 9.718 9.718 0 0 0 2.663 1.123q.808.252 1.224.391t1.136.429a6.86 6.86 0 0 1 1.111.543 8.884 8.884 0 0 1 .9.681 3.507 3.507 0 0 1 .77.883 5.065 5.065 0 0 1 .644 2.5 4.734 4.734 0 0 1-1.78 3.887 7.135 7.135 0 0 1-4.644 1.439z" class="cls-1" data-name="Path 12757" transform="translate(-494.699 -887.571)"/>
            <path id="Path_12758" d="M621.219 888.081v3.332h-4.77v14.335h-3.483v-14.335h-4.744v-3.332z" class="cls-1" data-name="Path 12758" transform="translate(-500.783 -887.728)"/>
        </g>
    </g>
</svg>
