<svg xmlns="http://www.w3.org/2000/svg" width="22" height="16.175" viewBox="0 0 22 16.175">
    <defs>
        <style>
            .cls-1{fill:#0672ba}
        </style>
    </defs>
    <path id="_2G" d="M7.024 16.175a513.9 513.9 0 0 1-5.325-.014 1.67 1.67 0 0 1-1.207-.534A2.186 2.186 0 0 1 0 14.119V5.353a2.453 2.453 0 0 1 .722-1.877 2.429 2.429 0 0 1 1.619-.6h2.838l.029-.039c.32-.423.916-1.21 1.443-1.871a2.1 2.1 0 0 1 1.772-.95H9.35C10.168.006 11.383 0 12.338 0c.6 0 1.014 0 1.231.007a2.39 2.39 0 0 1 1.891.957l.058.065c.1.11.758.95 1.241 1.564l.225.286H19.6a2.418 2.418 0 0 1 2.39 2.047.651.651 0 0 1 .01.12c0 .065-.072 7.413 0 9.018a2.033 2.033 0 0 1-.607 1.716 1.705 1.705 0 0 1-1.124.395 1.86 1.86 0 0 1-.221-.013H18.07c-2.57.006-7.347.013-11.046.013zM2.318 4.259a1.006 1.006 0 0 0-.662.234 1.16 1.16 0 0 0-.274.861v8.806a.865.865 0 0 0 .134.543.29.29 0 0 0 .225.076c.324.01 2.074.014 5.2.014 2.113 0 6.041 0 12.757-.014h.389a.113.113 0 0 1 .046-.01.2.2 0 0 1 .057.011l.03.008a.319.319 0 0 0 .051 0 .341.341 0 0 0 .217-.063.868.868 0 0 0 .127-.612c-.069-1.618 0-8.713 0-9.014a1.033 1.033 0 0 0-1.015-.84h-2.952A.689.689 0 0 1 16.1 4a182.789 182.789 0 0 0-1.621-2.052l-.07-.078a1.04 1.04 0 0 0-.874-.479c-.214 0-.634-.007-1.215-.007-1.1 0-2.442.008-2.969.012H8.423c-.234 0-.362.018-.692.432a95.572 95.572 0 0 0-1.654 2.153.685.685 0 0 1-.554.276H2.318zm8.8 8.659a4.509 4.509 0 1 1 4.508-4.509 4.513 4.513 0 0 1-4.507 4.509zm0-7.638a3.129 3.129 0 1 0 3.127 3.129 3.132 3.132 0 0 0-3.126-3.129z" class="cls-1" data-name="2G"/>
</svg>
