<svg xmlns="http://www.w3.org/2000/svg" width="15.167" height="14.504" viewBox="0 0 15.167 14.504">
    <defs>
        <style>
            .cls-1{fill:#ffc400}
        </style>
    </defs>
    <path id="star" d="M8.316 1.5l1.711 3.466a.816.816 0 0 0 .615.447l3.825.556a.817.817 0 0 1 .453 1.393l-2.768 2.7a.817.817 0 0 0-.235.723l.653 3.81a.817.817 0 0 1-1.185.861l-3.421-1.8a.818.818 0 0 0-.76 0l-3.421 1.8a.817.817 0 0 1-1.183-.862l.653-3.81a.817.817 0 0 0-.235-.723L.248 7.364A.817.817 0 0 1 .7 5.971l3.825-.556a.816.816 0 0 0 .615-.447L6.852 1.5a.816.816 0 0 1 1.464 0z" class="cls-1" transform="translate(-.001 -1.047)"/>
</svg>
