<svg xmlns="http://www.w3.org/2000/svg" width="112.419" height="109.644" viewBox="0 0 112.419 109.644">
    <defs>
        <style>
            .prefix__cls-1{fill:#0672ba}.prefix__cls-2{fill:#010101;opacity:.25}
        </style>
    </defs>
    <g id="prefix__Group_3608" data-name="Group 3608" transform="translate(-131.291 -559.356)">
        <g id="prefix__Group_3232" data-name="Group 3232" transform="translate(-376.275 465.009)">
            <g id="prefix__Logo_Blue" data-name="Logo Blue" transform="translate(507.566 156)">
                <path id="prefix__Path_12928" d="M692.2 500.871v3.11h-4.453v13.381H684.5v-13.381h-4.429v-3.11z" class="prefix__cls-1" data-name="Path 12928" transform="translate(-680.071 -500.541)"/>
                <path id="prefix__Path_12929" d="M755.3 517.362l-3.334-5.725H749.5v5.725h-3.251v-16.491h6.6a5.47 5.47 0 015.489 5.466 5.019 5.019 0 01-.872 2.839 5.453 5.453 0 01-2.308 1.967l3.651 6.22zm-5.8-13.452v4.876h3.345a2.069 2.069 0 001.578-.718 2.471 2.471 0 00.66-1.732 2.43 2.43 0 00-.66-1.72 2.085 2.085 0 00-1.578-.707z" class="prefix__cls-1" data-name="Path 12929" transform="translate(-732.307 -500.541)"/>
                <path id="prefix__Path_12930" d="M820.179 517.362l-1.048-2.969h-6.774l-.989 2.969h-3.51l5.772-16.491h4.028l5.818 16.491zm-6.763-6.007h4.641l-2.38-6.738z" class="prefix__cls-1" data-name="Path 12930" transform="translate(-780.929 -500.541)"/>
                <path id="prefix__Path_12931" d="M883.709 517.362l-5.536-16.491h3.534l4.033 12.678 4-12.678h3.56l-5.56 16.491z" class="prefix__cls-1" data-name="Path 12931" transform="translate(-836.428 -500.541)"/>
                <path id="prefix__Path_12932" d="M960.686 514.252h6.949v3.11h-10.2v-16.491h10.083v3.11h-6.832v3.51h6.243v3.062h-6.243z" class="prefix__cls-1" data-name="Path 12932" transform="translate(-898.987 -500.541)"/>
                <path id="prefix__Path_12933" d="M1019.937 514.252h6.29v3.11h-9.541v-16.491h3.251z" class="prefix__cls-1" data-name="Path 12933" transform="translate(-945.753 -500.541)"/>
                <path id="prefix__Path_12934" d="M1070.682 500.871h3.251v16.491h-3.251z" class="prefix__cls-1" data-name="Path 12934" transform="translate(-988.37 -500.541)"/>
                <path id="prefix__Path_12935" d="M1101.868 516.457a7.365 7.365 0 01-4.123-1.1 5.857 5.857 0 01-2.356-2.98l2.78-1.626a3.7 3.7 0 003.793 2.521 3.264 3.264 0 002-.495 1.557 1.557 0 00-.141-2.6 12.016 12.016 0 00-2.78-1.048 17.148 17.148 0 01-1.873-.66 8.035 8.035 0 01-1.531-.884 3.6 3.6 0 01-1.166-1.4 4.581 4.581 0 01-.4-1.979 4.416 4.416 0 011.59-3.569 5.769 5.769 0 013.828-1.331 6.368 6.368 0 013.522.978 6.568 6.568 0 012.368 2.721l-2.733 1.578a3.292 3.292 0 00-3.157-2.12 2.49 2.49 0 00-1.59.459 1.451 1.451 0 00-.577 1.19 1.5 1.5 0 00.648 1.26 9.049 9.049 0 002.486 1.049q.754.236 1.143.365t1.06.4a6.44 6.44 0 011.037.507 8.26 8.26 0 01.836.636 3.259 3.259 0 01.718.825 4.72 4.72 0 01.6 2.332 4.42 4.42 0 01-1.661 3.628 6.661 6.661 0 01-4.321 1.343z" class="prefix__cls-1" data-name="Path 12935" transform="translate(-1007.872 -499.307)"/>
                <path id="prefix__Path_12936" d="M1168.115 500.871v3.11h-4.453v13.381h-3.251v-13.381h-4.429v-3.11z" class="prefix__cls-1" data-name="Path 12936" transform="translate(-1055.696 -500.541)"/>
            </g>
        </g>
        <g id="prefix__B_Icon_Logo_Blue" data-name="B Icon Logo Blue" transform="translate(167.37 559.356)">
            <path id="prefix__Rectangle_1754" d="M0 0H40.261V4.807H0z" class="prefix__cls-1" data-name="Rectangle 1754" transform="translate(0 1.307)"/>
            <path id="prefix__Rectangle_1755" d="M0 0H42.803V4.807H0z" class="prefix__cls-1" data-name="Rectangle 1755" transform="rotate(-90 28.021 14.782)"/>
            <path id="prefix__Rectangle_1756" d="M0 0H42.803V4.807H0z" class="prefix__cls-1" data-name="Rectangle 1756" transform="rotate(-90 31.725 11.078)"/>
            <path id="prefix__Rectangle_1757" d="M0 0H40.261V4.807H0z" class="prefix__cls-1" data-name="Rectangle 1757" transform="translate(0 8.714)"/>
            <path id="prefix__Rectangle_1758" d="M0 0H4.807V1.179H0z" class="prefix__cls-2" data-name="Rectangle 1758" transform="translate(20.646 13.521)"/>
            <path id="prefix__Rectangle_1759" d="M0 0H4.807V1.179H0z" class="prefix__cls-2" data-name="Rectangle 1759" transform="translate(13.239 13.521)"/>
            <path id="prefix__Rectangle_1760" d="M0 0H4.807V1.179H0z" class="prefix__cls-2" data-name="Rectangle 1760" transform="translate(20.646 6.114)"/>
            <path id="prefix__Rectangle_1761" d="M0 0H4.807V1.179H0z" class="prefix__cls-2" data-name="Rectangle 1761" transform="translate(13.239 6.114)"/>
        </g>
        <text id="prefix__V1_0" transform="translate(187.5 666)" style="fill:#898e99;font-size:16px;font-family:Lato-Regular,Lato">
            <tspan x="-16.584" y="0">V1.0</tspan>
        </text>
    </g>
</svg>
