<svg xmlns="http://www.w3.org/2000/svg" width="342.154" height="320.543" viewBox="0 0 342.154 320.543">
    <defs>
        <style>
            .cls-1{fill:#e3eeff}.cls-2{fill:#d4e3f9}.cls-3{fill:#6b594c}.cls-4{fill:#ff9494}.cls-5{fill:#f6d6ba}.cls-6{fill:#869be0}.cls-7{fill:#ff6f60}.cls-8{fill:#b1c5f2}.cls-9{fill:#a1b3e5}.cls-10{fill:#9bb4e8}.cls-11,.cls-16{fill:#fff}.cls-12{clip-path:url(#clip-path)}.cls-13{clip-path:url(#clip-path-2)}.cls-14{fill:#c1d9f3}.cls-15{fill:#c7d5e5}.cls-16{opacity:.5}.cls-17{fill:#b3c7e2}.cls-18{fill:#c2d8f2}.cls-19{clip-path:url(#clip-path-3)}.cls-20{fill:#b59986}.cls-21{fill:#514238}.cls-22{clip-path:url(#clip-path-4)}.cls-23,.cls-33,.cls-39,.cls-44,.cls-51,.cls-52,.cls-53{fill:none}.cls-23{stroke:#dd8585;stroke-width:1.601px}.cls-23,.cls-39,.cls-44{stroke-linecap:round;stroke-linejoin:round}.cls-24{fill:#dd8585}.cls-25{clip-path:url(#clip-path-5)}.cls-26{fill:#e8c5ac}.cls-27{fill:#6175a3}.cls-28{fill:#7085c1}.cls-29{clip-path:url(#clip-path-6)}.cls-30{fill:#897262}.cls-31{fill:#90a9e0}.cls-32{clip-path:url(#clip-path-7)}.cls-33{stroke:#6b83c6}.cls-33,.cls-51,.cls-52,.cls-53{stroke-miterlimit:10}.cls-33,.cls-44{stroke-width:.534px}.cls-34{clip-path:url(#clip-path-8)}.cls-35{clip-path:url(#clip-path-9)}.cls-36{fill:#ff6f5f}.cls-37{fill:#e86258}.cls-38{clip-path:url(#clip-path-10)}.cls-39{stroke:#95aedb;stroke-width:.267px}.cls-40{fill:#ff817b}.cls-41{clip-path:url(#clip-path-11)}.cls-42{fill:#eac3a7}.cls-43{fill:#7287c4}.cls-44{stroke:#869be0}.cls-45{fill:#ffd7ba}.cls-46{clip-path:url(#clip-path-12)}.cls-47{clip-path:url(#clip-path-13)}.cls-48{clip-path:url(#clip-path-14)}.cls-49{clip-path:url(#clip-path-15)}.cls-50{clip-path:url(#clip-path-16)}.cls-51,.cls-52,.cls-53{stroke:#000;stroke-linecap:square;stroke-width:.163px}.cls-52{stroke-dasharray:.432 .432 .432 .432}.cls-53{stroke-dasharray:.432 .432 .432 .432 .432 .432}
        </style>
        <clipPath id="clip-path">
            <path id="Path_12468" d="M244.007 309.65s34.993-42.806 75.937-22.168 87.488 49.551 123.632 54.9 69.2 27.085 66.221 60.177-52.138 71.83-46.547 99.531 25.188 31.631 23.578 54.508-74.726 36.822-103.056-3.784-63.918 13.225-95.1 8.625c-57.933-8.545-171.572-123.477-44.665-251.789z" class="cls-1" data-name="Path 12468" transform="translate(-186.309 -281.858)"/>
        </clipPath>
        <clipPath id="clip-path-2">
            <path id="Path_12467" d="M167.684 756.477h96.577A197.009 197.009 0 0 1 298.1 759.4c33.26 5.8 98.165 20.651 98.165 48.257 0 0 2.161 22.231-21.614 22.231H180.537z" class="cls-2" data-name="Path 12467" transform="translate(-167.684 -756.477)"/>
        </clipPath>
        <clipPath id="clip-path-3">
            <path id="Path_12479" d="M959.333 1025.219s-3.048-2.974-1.255-8.571c0 0 1.082-1.4-.19-1.577-1.016-.139-2.093 1.836-3.28 2.365s-3.424 1.228-4.183.947l.032-.333-1.792-.081s-.37-.029-.385.235.679 5.028.679 5.028l1.47.356s.409 3.429-.045 4.8 5.158 14 6.174 14.4a1.938 1.938 0 0 0 2.563-2.073c-.008-1.874-.938-5.066-.237-7.96s1.557-4.122 2.871-4.727a12.293 12.293 0 0 1 1.789-.69.266.266 0 0 0 .2-.252c.012-.652-.033-2.6-1.041-2.052a3.593 3.593 0 0 1-3.37.185z" class="cls-3" data-name="Path 12479" transform="translate(-948.279 -1015.064)"/>
        </clipPath>
        <clipPath id="clip-path-4">
            <path id="Path_12484" d="M933.581 871.512s8.83 16.035 8.885 21.784c.048 5.066.012 34.009 0 40.814a1.933 1.933 0 0 0 1.384 1.857c2.812.834 9.058 2.535 10.7 1.714 2.139-1.07 6.62-32.024 7.288-36.569s3.172-23.977 4.828-29.6-39.166-12.433-33.085 0z" class="cls-4" data-name="Path 12484" transform="translate(-932.963 -864.515)"/>
        </clipPath>
        <clipPath id="clip-path-5">
            <path id="Path_12487" d="M1028.356 762.211a56.988 56.988 0 0 0 5.949 0c1.4-.2 9.225-2.54 9.96-3.142s1.939-3.008 2.874-3.476 3.008-1 3.81-.669 1.2 1.47 1.538 1.4 7.153-2.072 7.821-1.872 1 1.671.735 1.872.4 1 .067 1.27-3.142 2.874-3.142 2.874-.067 1.872-.936 2.473a3 3 0 0 1-2.005.4 2.341 2.341 0 0 1-.267 1.27 3.476 3.476 0 0 1-3.142.668c-.936-.4-1.939.4-2.34.4s-3.142-.2-3.877-.2-4.746 2.206-8.757 3.877a58.47 58.47 0 0 1-6.484 2.34z" class="cls-5" data-name="Path 12487" transform="translate(-1028.356 -754.442)"/>
        </clipPath>
        <clipPath id="clip-path-6">
            <path id="Path_12492" d="M1097.208 746.983l-7.52 8.824a.91.91 0 0 0 .4 1.354 6.359 6.359 0 0 0 1.3.7 1.43 1.43 0 0 0 1.8-.451c.8-1 7.27-8.523 7.27-8.523s.852-.853-.05-1.354a12.527 12.527 0 0 0-1.56-.709 5.555 5.555 0 0 1-.564-.266c-.208-.11-.609-.177-1.076.425z" class="cls-6" data-name="Path 12492" transform="translate(-1089.528 -746.486)"/>
        </clipPath>
        <clipPath id="clip-path-7">
            <path id="Path_12498" d="M966.872 821.9s12.634 1.4 13.369 1.136 2.54.8 2.406 3.008-.735 5.147-.936 6.752-.535 4.211.067 5.949 1.6 2.273 1 2.741-2.54 1.4-5.949 1.27-10.027-8.423-10.027-12.5.07-8.356.07-8.356z" class="cls-6" data-name="Path 12498" transform="translate(-966.805 -821.901)"/>
        </clipPath>
        <clipPath id="clip-path-8">
            <path id="Path_12504" d="M888.916 739.135c-.235.325-3.075 7.487-5.214 9.225s-5.348 3.075-7.219 2.674-1.47.8-2.807.936-1.738-.936-2.406.535-2.407-.134-2.674.936-2.273 4.278-2.273 4.813-2.54 3.075-3.342 6.15-4.546 15.776 0 25.4 5.348 14.305 8.824 15.241 10.562-4.813 12.968-6.551 4.679-.535 5.882-2.807 5.615-6.15 5.615-8.423 2.139-6.952.535-9.492-7.62-14.172-8.022-16.846.669-12.567 1.872-16.444 1.737-10.16-1.739-5.347z" class="cls-7" data-name="Path 12504" transform="translate(-860.769 -737.393)"/>
        </clipPath>
        <clipPath id="clip-path-9">
            <path id="Path_12502" d="M852.065 772.828s6.629-1.252 8.6.042 2.9 1.562 4.774.091 2.808-3.877 4.145-3.208 2.005.936 2.807-.668a9.368 9.368 0 0 1 2.54-3.476c1.337-1.2 1.6 0 2.674-1.6s-3.476-3.81-3.61-6.351-12.7 6.618-12.7 6.618z" class="cls-4" data-name="Path 12502" transform="translate(-852.065 -757.208)"/>
        </clipPath>
        <clipPath id="clip-path-10">
            <path id="Path_12511" d="M951.456 723.932s4.813-9.626 2.942-13.637-3.877-6.283-6.952-6.016-9.492 5.348-11.364 8.69-4.813 20.856-4.546 23.931a104.68 104.68 0 0 1-.133 11.765c-.134.535 8.022.936 8.69.4a4.09 4.09 0 0 0 .936-2.005 26.2 26.2 0 0 0 2.807 2.94c.668.4 2.005-1.872 2.005-1.872s-2.139-4.011-1.738-4.412 3.075-3.075 2.941-4.813 1.471-5.749 1.738-6.952 1.6-2.674 1.6-3.476a38.981 38.981 0 0 1 1.074-4.543z" class="cls-8" data-name="Path 12511" transform="translate(-931.401 -704.258)"/>
        </clipPath>
        <clipPath id="clip-path-11">
            <path id="Path_12518" d="M990 667.69s.6-.535-.2-3.209-2.139-3.81-2.139-4.813a3.95 3.95 0 0 1 1.471-2.741s.133.8 1.337 1.337 2.34.4 2.741.735a3.089 3.089 0 0 0 2.807-.4c.468-.6.8-.4.8-1.738s0-2.005.468-2.34a2.674 2.674 0 0 0 .735-.869 3.075 3.075 0 0 1 1.069-.334c.6-.067 1-1.337 1-1.337s1.537.4 1.872-.067.535-.535.468-2.406-.268-2.54.4-3.142a8.015 8.015 0 0 0 2.005-4.144c.2-1.671 1.538-.869 2.54-2.741a4.192 4.192 0 0 0 .6-3.075 5.05 5.05 0 0 0-1.8-2.874c-1.471-1.07-3.61-2.674-4.479-3.209s-2.273-3.342-3.142-3.543-2.273.268-3.142.134-3.142-1.136-4.478-1.27-4.278.267-5.147.936-.6 1.8-1.471 2.54a5.986 5.986 0 0 0-1.738 2.54c-.267.8-1.069 1.939-1.4 2.741s-.067 2.54-.2 3.476.067 4.947-.067 6.017a9.75 9.75 0 0 1-1.337 3.342 995.2 995.2 0 0 0-2.273 3.743l8.556 11.03z" class="cls-5" data-name="Path 12518" transform="translate(-977.301 -625.618)"/>
        </clipPath>
        <clipPath id="clip-path-12">
            <path id="Path_12538" d="M959.934 1075.093s-4.126 1.052-7.97-3.393c0 0-.634-1.655-1.445-.659-.648.794.477 2.743.31 4.032s-.735 3.562-1.37 4.063l-.268-.2-1 1.487s-.217.3 0 .451 4.646 2.039 4.646 2.039l1.07-1.07s3.14 1.437 4.077 2.54 14.64 2.891 15.509 2.231a1.938 1.938 0 0 0-.434-3.267c-1.6-.969-4.813-1.838-6.919-3.944s-2.707-3.476-2.54-4.913a12.256 12.256 0 0 1 .343-1.887.266.266 0 0 0-.114-.3c-.55-.349-2.238-1.326-2.293-.18a3.594 3.594 0 0 1-1.602 2.97z" class="cls-3" data-name="Path 12538" transform="translate(-948.092 -1070.722)"/>
        </clipPath>
        <clipPath id="clip-path-13">
            <path id="Path_12540" d="M694.281 971.4l22.3 24.861a3.228 3.228 0 0 0 4.545.247l56.2-50.411a3.228 3.228 0 0 0 .247-4.545l-7.055-7.866a26.124 26.124 0 0 0-36.783-2l-39.208 35.168a3.228 3.228 0 0 0-.246 4.546z" class="cls-6" data-name="Path 12540" transform="translate(-693.462 -925.06)"/>
        </clipPath>
        <clipPath id="clip-path-14">
            <path id="Rectangle_1682" d="M0 0h3.095v86.741H0z" class="cls-9" data-name="Rectangle 1682" transform="rotate(-131.91 14.465 29.652)"/>
        </clipPath>
        <clipPath id="clip-path-15">
            <rect id="Rectangle_1687" width="13.719" height="5.667" class="cls-10" data-name="Rectangle 1687" rx=".868" transform="rotate(-41.632 11.986 4.557)"/>
        </clipPath>
        <clipPath id="clip-path-16">
            <path id="Rectangle_1686" d="M0 0h15.004v4.261H0z" class="cls-11" data-name="Rectangle 1686" transform="matrix(.747 -.664 .664 .747 0 9.968)"/>
        </clipPath>
    </defs>
    <g id="Group_2621" data-name="Group 2621">
        <g id="_ÎÓÈ_3" data-name="—ÎÓÈ_3">
            <g id="Group_2581" data-name="Group 2581">
                <g id="Group_2580" data-name="Group 2580">
                    <path id="Path_12463" d="M244.007 309.65s34.993-42.806 75.937-22.168 87.488 49.551 123.632 54.9 69.2 27.085 66.221 60.177-52.138 71.83-46.547 99.531 25.188 31.631 23.578 54.508-74.726 36.822-103.056-3.784-63.918 13.225-95.1 8.625c-57.933-8.545-171.572-123.477-44.665-251.789z" class="cls-1" data-name="Path 12463" transform="translate(-186.309 -281.858)"/>
                    <g id="Group_2579" class="cls-12" data-name="Group 2579">
                        <g id="Group_2577" data-name="Group 2577" transform="translate(-6.817 178.348)">
                            <path id="Path_12464" d="M167.684 756.477h96.577A197.009 197.009 0 0 1 298.1 759.4c33.26 5.8 98.165 20.651 98.165 48.257 0 0 2.161 22.231-21.614 22.231H180.537z" class="cls-2" data-name="Path 12464" transform="translate(-167.684 -756.477)"/>
                            <g id="Group_2576" class="cls-13" data-name="Group 2576">
                                <path id="Path_12465" d="M591.188 765.257c-.813.834-44.752 10.146-63.9 14.173a16.119 16.119 0 0 0-12.61 14.088c-.438 4.03.266 7.952 3.843 9.81 8.907 4.625 116.607 3.2 116.607 3.2z" class="cls-14" data-name="Path 12465" transform="translate(-387.607 -761.958)"/>
                                <path id="Path_12466" d="M409.536 875.528s-1.246 17.207-33.781 17.207H178.9l10.08 28.415 235.291-6.6z" class="cls-15" data-name="Path 12466" transform="translate(-174.796 -830.792)"/>
                            </g>
                        </g>
                        <path id="Path_13002" d="M14.927 0A14.329 14.329 0 0 1 29.58 14.38a14.99 14.99 0 0 1-14.926 14.654A14.329 14.329 0 0 1 0 14.654 14.99 14.99 0 0 1 14.927 0z" class="cls-14" data-name="Path 13002" transform="rotate(-67.5 196.325 59.831)"/>
                        <path id="Path_13003" d="M14.927 0A14.329 14.329 0 0 1 29.58 14.38a14.99 14.99 0 0 1-14.926 14.654A14.329 14.329 0 0 1 0 14.654 14.99 14.99 0 0 1 14.927 0z" class="cls-14" data-name="Path 13003" transform="rotate(-67.5 178 87.258)"/>
                        <path id="Path_13004" d="M14.922 0a14.4 14.4 0 0 1 14.707 14.386 14.918 14.918 0 0 1-14.921 14.6A14.4 14.4 0 0 1 0 14.6 14.918 14.918 0 0 1 14.922 0z" class="cls-14" data-name="Path 13004" transform="rotate(-73.155 145.123 114.458)"/>
                        <g id="Group_2578" data-name="Group 2578" transform="translate(-14.889 -51.705)">
                            <path id="Rectangle_1675" d="M0 0h7.445v240.018H0z" class="cls-11" data-name="Rectangle 1675" transform="translate(172.313)"/>
                            <path id="Rectangle_1676" d="M0 0h134.379v7.644H0z" class="cls-11" data-name="Rectangle 1676" transform="translate(179.757 240.018)"/>
                            <path id="Rectangle_1677" d="M0 0h172.313v7.143H0z" class="cls-11" data-name="Rectangle 1677" transform="translate(0 240.669)"/>
                            <path id="Rectangle_1678" d="M0 0h7.445v7.644H0z" class="cls-11" data-name="Rectangle 1678" transform="translate(172.313 240.018)"/>
                        </g>
                    </g>
                </g>
                <path id="Path_12469" d="M356.07 436.018h45.351s8.454-6.163 2.786-9.4-14.037.023-14.037.023 8.368-12.541-.54-11.461-17.007 10.433-17.007 10.433 4.049-4.667.675-7.1-16.234 11.705-17.228 17.505z" class="cls-16" data-name="Path 12469" transform="translate(-294.235 -365.039)"/>
                <path id="Path_12470" d="M476.087 542.348h28.756s5.6-6.949 0-6.476-7.734 1.88-7.734 1.88 6.627-4.859 2.012-6.279-10.253 5.411-10.253 5.411 8.359-7.756 4.809-9.886-15.536 6.56-17.59 15.35z" class="cls-16" data-name="Path 12470" transform="translate(-370.327 -434.678)"/>
                <path id="Path_12471" d="M683.573 520.083h36.5s7.113-8.819 0-8.219-9.816 2.386-9.816 2.386 8.411-6.166 2.553-7.968-13.012 6.867-13.012 6.867 10.609-9.843 6.1-12.547-19.718 8.325-22.325 19.481z" class="cls-16" data-name="Path 12471" transform="translate(-502.241 -418.147)"/>
                <path id="Path_12472" d="M866.649 584.048h28.757s5.6-6.95 0-6.476-7.734 1.88-7.734 1.88 6.627-4.858 2.011-6.278-10.253 5.411-10.253 5.411 8.359-7.756 4.81-9.886-15.54 6.559-17.591 15.349z" class="cls-16" data-name="Path 12472" transform="translate(-619.651 -460.709)"/>
            </g>
        </g>
        <g id="_ÎÓÈ_4" data-name="—ÎÓÈ_4" transform="translate(116.607 129.175)">
            <g id="Group_2582" data-name="Group 2582" transform="translate(0 88.008)">
                <path id="Path_12473" d="M549.007 880.567s.024.643-3.695 4.552a20.928 20.928 0 0 0-4.831 8.641 2.828 2.828 0 0 0 .256.151 60.691 60.691 0 0 1-3.7 3.419c.348-8.252.808-15.539 1.419-20.153.022-.122 1.4-7.762.96-11.111-.224-1.72-4.046-4.624-6.828-5.655a10.22 10.22 0 0 0-5.409-.391s-.245 3.857 3.126 4.742c2.753.723 1.09 9.264 7.093 12.018-1.119 8.243-1.743 25.285-2.091 41.042a21.177 21.177 0 0 1-4.413-3.382 2.6 2.6 0 0 0 1.419-2.609c-.525-3.736-10.991-9.418-11.953-11.062a.053.053 0 0 0-.1.014c-.265.989-1.7 6.98 1.089 11.418 1.959 3.115 6.145 3.66 8.747 2.634 1.5 1.408 3.779 3.391 5.188 3.858-.071 3.311-.13 6.554-.179 9.64a10.79 10.79 0 0 1-2.075 3.965h-9.413a.622.622 0 0 0-.616.61v19.263a11.065 11.065 0 0 0 11.088 11.013h3.219a11.043 11.043 0 0 0 11.063-11.013v-19.263a.6.6 0 0 0-.591-.61h-8.762a15.118 15.118 0 0 1-2.8-4.5c.149-9.254.388-19.874.772-29.35a59.052 59.052 0 0 0 4.632-4.252c3.494.476 8.287-5.631 11.484-7.339 3.604-1.93-4.099-6.29-4.099-6.29z" class="cls-17" data-name="Path 12473" transform="translate(-519.654 -859.824)"/>
                <path id="Path_12474" d="M613.986 1006.652s-.012.318 1.827 2.251a10.353 10.353 0 0 1 2.39 4.274 1.342 1.342 0 0 1-.127.075c.72.728 1.416 1.339 1.832 1.691-.172-4.082-.4-7.686-.7-9.968a26.734 26.734 0 0 1-.475-5.5c.11-.851 2-2.287 3.377-2.8a5.059 5.059 0 0 1 2.675-.193 2.284 2.284 0 0 1-1.546 2.346c-1.362.358-.54 4.582-3.508 5.944.553 4.077.862 12.506 1.034 20.3a10.481 10.481 0 0 0 2.182-1.672 1.287 1.287 0 0 1-.7-1.29c.259-1.848 5.436-4.658 5.912-5.472a.026.026 0 0 1 .048.007c.131.489.841 3.453-.539 5.647a3.693 3.693 0 0 1-4.326 1.3 9.844 9.844 0 0 1-2.566 1.909c.035 1.637.064 3.241.089 4.768a5.335 5.335 0 0 0 1.026 1.962h4.656a.307.307 0 0 1 .3.3v9.527a5.473 5.473 0 0 1-5.484 5.447h-1.592a5.462 5.462 0 0 1-5.472-5.447v-9.527a.3.3 0 0 1 .292-.3h4.333a7.472 7.472 0 0 0 1.386-2.228c-.074-4.577-.192-9.83-.382-14.517a29.275 29.275 0 0 1-2.291-2.1c-1.728.236-4.1-2.786-5.68-3.63-1.782-.948 2.029-3.104 2.029-3.104z" class="cls-18" data-name="Path 12474" transform="translate(-576.977 -945.074)"/>
            </g>
            <g id="Group_2620" data-name="Group 2620" transform="translate(65.312)">
                <path id="Path_12475" d="M995.08 885.194s6.774 7.215 13.415 28.757a13.071 13.071 0 0 1-2.525 12.383q-.134.155-.274.312c-4.483 5.014-24.844 14.84-24.844 14.84l-3.019-10.629 11.272-12.318a3.542 3.542 0 0 0 .458-4.156c-3.869-6.729-14.925-26.5-12.87-29.188 2.482-3.252 13.642-10.517 18.387-.001z" class="cls-7" data-name="Path 12475" transform="translate(-870.105 -784.23)"/>
                <g id="Group_2584" data-name="Group 2584" transform="translate(95.753 146.343)">
                    <path id="Path_12476" d="M959.333 1025.219s-3.048-2.974-1.255-8.571c0 0 1.082-1.4-.19-1.577-1.016-.139-2.093 1.836-3.28 2.365s-3.424 1.228-4.183.947l.032-.333-1.792-.081s-.37-.029-.385.235.679 5.028.679 5.028l1.47.356s.409 3.429-.045 4.8 5.158 14 6.174 14.4a1.938 1.938 0 0 0 2.563-2.073c-.008-1.874-.938-5.066-.237-7.96s1.557-4.122 2.871-4.727a12.293 12.293 0 0 1 1.789-.69.266.266 0 0 0 .2-.252c.012-.652-.033-2.6-1.041-2.052a3.593 3.593 0 0 1-3.37.185z" class="cls-3" data-name="Path 12476" transform="translate(-948.279 -1015.064)"/>
                    <g id="Group_2583" class="cls-19" data-name="Group 2583">
                        <path id="Path_12477" d="M949.635 1021.705s.43 8.107.992 11.258 5.114 13.012 5.739 14.079-.594.735-.594.735L949.415 1035l-1.115-6.28-.716-.885-.519-6.144z" class="cls-20" data-name="Path 12477" transform="translate(-947.521 -1019.199)"/>
                        <path id="Path_12478" d="M975.9 1049.1a7.834 7.834 0 0 0-3.149-.575c-2.066-.031-3.713 2.373-3.7 4.322s.839 5.322 1.694 6.24a2.8 2.8 0 0 0 2.441.537z" class="cls-21" data-name="Path 12478" transform="translate(-961.248 -1035.953)"/>
                    </g>
                </g>
                <path id="Path_12480" d="M959.534 1034.5s-1.6 15.174-1 16.31 8.11 3.209 8.9 2.34 3-15.041 3-15.041z" class="cls-5" data-name="Path 12480" transform="translate(-858.842 -880.853)"/>
                <g id="Group_2586" data-name="Group 2586" transform="translate(89.998 89.771)">
                    <path id="Path_12481" d="M933.581 871.512s8.83 16.035 8.885 21.784c.048 5.066.012 34.009 0 40.814a1.933 1.933 0 0 0 1.384 1.857c2.812.834 9.058 2.535 10.7 1.714 2.139-1.07 6.62-32.024 7.288-36.569s3.172-23.977 4.828-29.6-39.166-12.433-33.085 0z" class="cls-4" data-name="Path 12481" transform="translate(-932.963 -864.515)"/>
                    <g id="Group_2585" class="cls-22" data-name="Group 2585">
                        <path id="Path_12482" d="M988.686 903.631a13.079 13.079 0 0 0 9.82-6.736" class="cls-23" data-name="Path 12482" transform="translate(-967.747 -884.727)"/>
                        <path id="Path_12483" d="M988.247 899.126s8.038-3.628 9.467-3.459-1.528 3.084-1.528 3.084-5.14 3.849-7.491 4.047c-1.251.102-.48-1.991-.448-3.672z" class="cls-24" data-name="Path 12483" transform="translate(-967.308 -883.957)"/>
                    </g>
                </g>
                <g id="Group_2588" data-name="Group 2588" transform="translate(125.844 48.409)">
                    <path id="Path_12485" d="M1028.356 762.211a56.988 56.988 0 0 0 5.949 0c1.4-.2 9.225-2.54 9.96-3.142s1.939-3.008 2.874-3.476 3.008-1 3.81-.669 1.2 1.47 1.538 1.4 7.153-2.072 7.821-1.872 1 1.671.735 1.872.4 1 .067 1.27-3.142 2.874-3.142 2.874-.067 1.872-.936 2.473a3 3 0 0 1-2.005.4 2.341 2.341 0 0 1-.267 1.27 3.476 3.476 0 0 1-3.142.668c-.936-.4-1.939.4-2.34.4s-3.142-.2-3.877-.2-4.746 2.206-8.757 3.877a58.47 58.47 0 0 1-6.484 2.34z" class="cls-5" data-name="Path 12485" transform="translate(-1028.356 -754.442)"/>
                    <g id="Group_2587" class="cls-25" data-name="Group 2587">
                        <path id="Path_12486" d="M1094.946 755.947l2.777.081s.833 3.027-.872 4.281-3.978 4.779-4.93 4.779-4.129-1.943-5.285-3.068c-1.959-1.908 8.31-6.073 8.31-6.073z" class="cls-26" data-name="Path 12486" transform="translate(-1064.581 -755.382)"/>
                    </g>
                </g>
                <path id="Rectangle_1679" d="M0 0h1.45v49.912H0z" class="cls-27" data-name="Rectangle 1679" transform="rotate(-131.89 71.36 47.896)"/>
                <path id="Path_12488" d="M1080.389 763.493s1.537-.693 1.6-1.01.4-.033.752.435a1.855 1.855 0 0 0 1.078.575l.733 1.163-.29.9s-.217.952-.986.685-2.887-2.748-2.887-2.748z" class="cls-26" data-name="Path 12488" transform="translate(-934.993 -710.969)"/>
                <path id="Path_12489" d="M1089.546 758.09s-.322.827.209 1.278a13.8 13.8 0 0 0 1.855.969 1.519 1.519 0 0 0 1.27-.2c.333-.367 6.653-7.73 7.835-9.215a.757.757 0 0 0 .153-.626.74.74 0 0 0-.222-.429c-.28-.225-11.1 8.223-11.1 8.223z" class="cls-28" data-name="Path 12489" transform="translate(-940.648 -703.175)"/>
                <g id="Group_2590" data-name="Group 2590" transform="translate(148.83 45.419)">
                    <path id="Path_12490" d="M1097.208 746.983l-7.52 8.824a.91.91 0 0 0 .4 1.354 6.359 6.359 0 0 0 1.3.7 1.43 1.43 0 0 0 1.8-.451c.8-1 7.27-8.523 7.27-8.523s.852-.853-.05-1.354a12.527 12.527 0 0 0-1.56-.709 5.555 5.555 0 0 1-.564-.266c-.208-.11-.609-.177-1.076.425z" class="cls-6" data-name="Path 12490" transform="translate(-1089.528 -746.486)"/>
                    <g id="Group_2589" class="cls-29" data-name="Group 2589">
                        <path id="Path_12491" d="M1090.707 756.427l2.925 1.855 7.671-8.924-3.175-1.638z" class="cls-9" data-name="Path 12491" transform="translate(-1090.264 -747.256)"/>
                    </g>
                </g>
                <path id="Path_12493" d="M1065.74 766.161a5.949 5.949 0 0 0-.7 1.437 6.5 6.5 0 0 0-.067 3.209c.334.769.9 2.473 1.5 2.841a1.478 1.478 0 0 0 1.638-.133c.3-.268.033-.8.033-.8l-.468.033s-.2-.234-.535-.7a12.229 12.229 0 0 1-.9-4.078 8.806 8.806 0 0 1 .635-1.638c.101-.171.201-.505-1.136-.171z" class="cls-30" data-name="Path 12493" transform="translate(-925.257 -713.259)"/>
                <path id="Path_12494" d="M1003.726 770.285s1.1 1.905 1.905 1.7a2.721 2.721 0 0 0 1.905-2.106c0-.9 1.1-13.236.7-15.642s-.1-8.322-.2-11.03a32.526 32.526 0 0 0-1.9-8.022c-.5-1.4-2.707-7.621-3.108-8.724s-2.005-6.116-2.507-7.42-1.905-3.81-2.607-5.314a37.492 37.492 0 0 0-3.409-6.217c-1.8-2.607-5.815-2.406-5.815-2.406l13.536 37.2z" class="cls-31" data-name="Path 12494" transform="translate(-877.749 -675.236)"/>
                <path id="Path_12495" d="M924.435 749.8s-3.61 9.492 4.813 12.033 9.893 2.807 11.765 2.941 16.578 0 19.52-1.738 3.476-2.006 3.075-5.08a35.832 35.832 0 0 1 .267-8.022c.134-1.47.535-13.369.268-16.578s-3.075-13.5-4.278-16.845-4.278-14.172-5.615-16.31-3.877-6.952-5.481-8.556c0 0-4.028-3.961-4.429-4.262a8.486 8.486 0 0 1 .953-1.4s-2.707-1.153-4.061-.451-1.053 3.409-1.2 3.76-3.058 3.259-3.66 3.86-5.014 6.618-6.417 10.829a74.149 74.149 0 0 0-4.01 15.442c-1.1 7.52.6 13.536-.1 19.954s-.708 7.614-1.41 10.423z" class="cls-9" data-name="Path 12495" transform="translate(-837.162 -662.872)"/>
                <g id="Group_2592" data-name="Group 2592" transform="translate(102.715 73.758)">
                    <path id="Path_12496" d="M966.872 821.9s12.634 1.4 13.369 1.136 2.54.8 2.406 3.008-.735 5.147-.936 6.752-.535 4.211.067 5.949 1.6 2.273 1 2.741-2.54 1.4-5.949 1.27-10.027-8.423-10.027-12.5.07-8.356.07-8.356z" class="cls-6" data-name="Path 12496" transform="translate(-966.805 -821.901)"/>
                    <g id="Group_2591" class="cls-32" data-name="Group 2591">
                        <path id="Path_12497" d="M978.677 832.061s-2.54 1.4-4.546 1.069-9.358-1.872-12.7-1.8l-3.342.067" class="cls-33" data-name="Path 12497" transform="translate(-961.364 -827.783)"/>
                    </g>
                </g>
                <g id="Group_2596" data-name="Group 2596" transform="translate(62.869 42.002)">
                    <path id="Path_12499" d="M888.916 739.135c-.235.325-3.075 7.487-5.214 9.225s-5.348 3.075-7.219 2.674-1.47.8-2.807.936-1.738-.936-2.406.535-2.407-.134-2.674.936-2.273 4.278-2.273 4.813-2.54 3.075-3.342 6.15-4.546 15.776 0 25.4 5.348 14.305 8.824 15.241 10.562-4.813 12.968-6.551 4.679-.535 5.882-2.807 5.615-6.15 5.615-8.423 2.139-6.952.535-9.492-7.62-14.172-8.022-16.846.669-12.567 1.872-16.444 1.737-10.16-1.739-5.347z" class="cls-7" data-name="Path 12499" transform="translate(-860.769 -737.393)"/>
                    <g id="Group_2595" class="cls-34" data-name="Group 2595">
                        <g id="Group_2594" data-name="Group 2594" transform="translate(-3.271 7.446)">
                            <path id="Path_12500" d="M852.065 772.828s6.629-1.252 8.6.042 2.9 1.562 4.774.091 2.808-3.877 4.145-3.208 2.005.936 2.807-.668a9.368 9.368 0 0 1 2.54-3.476c1.337-1.2 1.6 0 2.674-1.6s-3.476-3.81-3.61-6.351-12.7 6.618-12.7 6.618z" class="cls-4" data-name="Path 12500" transform="translate(-852.065 -757.208)"/>
                            <g id="Group_2593" class="cls-35" data-name="Group 2593">
                                <path id="Path_12501" d="M907.2 772.735a.652.652 0 0 0-.3.5c0 .318.785.6.969.434s.367-.4.234-.652a.892.892 0 0 0-.903-.282z" class="cls-36" data-name="Path 12501" transform="translate(-886.295 -766.875)"/>
                            </g>
                        </g>
                        <path id="Path_12503" d="M846.875 851.593s7.952 18.14 15.379 17.8 13.928-7.076 15.389-5.9 10.622-8.681 10.622-8.681l.463 8.681-15.437 18.592-23.661-5.646z" class="cls-37" data-name="Path 12503" transform="translate(-852.096 -808.68)"/>
                    </g>
                </g>
                <path id="Path_12505" d="M928.754 806.921a50.094 50.094 0 0 1 3.6 7.1c.669 2.208 6.15-6.287 6.15-6.287l1.924-13.231z" class="cls-6" data-name="Path 12505" transform="translate(-840.338 -731.042)"/>
                <path id="Path_12506" d="M887.86 789.641s.468-.217.668.15.468 1.086.133 1.17-1.069-.601-.801-1.32z" class="cls-36" data-name="Path 12506" transform="translate(-814.775 -727.966)"/>
                <path id="Path_12507" d="M946.748 704.356a14 14 0 0 1 2.873 5.227 20.192 20.192 0 0 1 1.039 5.638c-.134 2.874-1.136 8.623-2.406 10.629s-5.749 11.832-9.225 13.169c-2.136.821-12.494 16.747-14.573 8.423-1.034-4.141-2.38-15.576-.735-22.126.453-1.805 6.368-14.695 7.54-16.141l3.33-4.111a13.159 13.159 0 0 1 4.032-2.655 7.828 7.828 0 0 1 6.055-.075l.467.187z" class="cls-6" data-name="Path 12507" transform="translate(-836.715 -673.148)"/>
                <path id="Path_12508" d="M934.607 815.625s6.15 10.963 8.422 14.706 6.952 8.824 7.219 9.893 1.337 5.348 2.005 6.417 3.877 3.743 4.813 3.743 4.412-1.872 5.214-3.209a4.765 4.765 0 0 0 .8-3.61l-.435-1.855s.9 1.153 1.454 1.053.853-.351.7-.8-.752-1-.852-1.6-1.253-1.7-2.156-2.206-3.81-.9-4.763-1.454-2.456-3.108-2.657-3.71a25.518 25.518 0 0 0-1.3-2.457 26.7 26.7 0 0 1-2.507-5.716c-.351-1.8-2.456-8.373-3.208-9.375a24.03 24.03 0 0 0-4.061-3.058z" class="cls-5" data-name="Path 12508" transform="translate(-843.992 -742.202)"/>
                <g id="Group_2598" data-name="Group 2598" transform="translate(89.411 29.551)">
                    <path id="Path_12509" d="M951.456 723.932s4.813-9.626 2.942-13.637-3.877-6.283-6.952-6.016-9.492 5.348-11.364 8.69-4.813 20.856-4.546 23.931a104.68 104.68 0 0 1-.133 11.765c-.134.535 8.022.936 8.69.4a4.09 4.09 0 0 0 .936-2.005 26.2 26.2 0 0 0 2.807 2.94c.668.4 2.005-1.872 2.005-1.872s-2.139-4.011-1.738-4.412 3.075-3.075 2.941-4.813 1.471-5.749 1.738-6.952 1.6-2.674 1.6-3.476a38.981 38.981 0 0 1 1.074-4.543z" class="cls-8" data-name="Path 12509" transform="translate(-931.401 -704.258)"/>
                    <g id="Group_2597" class="cls-38" data-name="Group 2597">
                        <path id="Path_12510" d="M956.865 813.851a4.154 4.154 0 0 1 .059 1.621" class="cls-39" data-name="Path 12510" transform="translate(-947.296 -772.669)"/>
                    </g>
                </g>
                <path id="Path_12512" d="M1022.93 815.334a.852.852 0 0 0-.167 1c.3.568 1.4 1.1 1.939.568s.835-1.137.5-1.5a1.561 1.561 0 0 0-2.272-.068z" class="cls-6" data-name="Path 12512" transform="translate(-898.958 -743.749)"/>
                <path id="Path_12513" d="M1023.388 846.646a.811.811 0 0 0-.234 1.1 1.5 1.5 0 0 0 1.872.468c.334-.3.535-.635.3-1a1.311 1.311 0 0 0-1.938-.568z" class="cls-6" data-name="Path 12513" transform="translate(-899.182 -763.463)"/>
                <path id="Path_12514" d="M1006.3 731.354l2.874 2.273-.6-1.6s2.273 2.072 2.206 2.74-1.136.6-.8 1.6 1.6 5.615 1.069 7.353-4.749-12.366-4.749-12.366z" class="cls-40" data-name="Path 12514" transform="translate(-888.742 -691.621)"/>
                <g id="Group_2600" data-name="Group 2600" transform="translate(106.659)">
                    <path id="Path_12515" d="M990 667.69s.6-.535-.2-3.209-2.139-3.81-2.139-4.813a3.95 3.95 0 0 1 1.471-2.741s.133.8 1.337 1.337 2.34.4 2.741.735a3.089 3.089 0 0 0 2.807-.4c.468-.6.8-.4.8-1.738s0-2.005.468-2.34a2.674 2.674 0 0 0 .735-.869 3.075 3.075 0 0 1 1.069-.334c.6-.067 1-1.337 1-1.337s1.537.4 1.872-.067.535-.535.468-2.406-.268-2.54.4-3.142a8.015 8.015 0 0 0 2.005-4.144c.2-1.671 1.538-.869 2.54-2.741a4.192 4.192 0 0 0 .6-3.075 5.05 5.05 0 0 0-1.8-2.874c-1.471-1.07-3.61-2.674-4.479-3.209s-2.273-3.342-3.142-3.543-2.273.268-3.142.134-3.142-1.136-4.478-1.27-4.278.267-5.147.936-.6 1.8-1.471 2.54a5.986 5.986 0 0 0-1.738 2.54c-.267.8-1.069 1.939-1.4 2.741s-.067 2.54-.2 3.476.067 4.947-.067 6.017a9.75 9.75 0 0 1-1.337 3.342 995.2 995.2 0 0 0-2.273 3.743l8.556 11.03z" class="cls-5" data-name="Path 12515" transform="translate(-977.301 -625.618)"/>
                    <g id="Group_2599" class="cls-41" data-name="Group 2599">
                        <path id="Path_12516" d="M981.352 643.419s2.106-1.4 2.156-1.755-.4 1.3.2 1.354 3.61-.4 4.713-1.354a19 19 0 0 0 2.607-3.409c.351-.6 1.254-2.306 2.256-2.156s1.955.451 1.905 1.4-.7 2.507-.4 3.058a3.889 3.889 0 0 1 0 2.507c-.251.351-2.407 4.613-3.209 5.415a10 10 0 0 0-1.7 4.713c.1.8.251 3.81 1 4.512s6.969 1.655 7.32-.7a16.131 16.131 0 0 0-.552-5.665c-.2-1.2.953-.7 2.056.652s1.6-1 1.6-1a2.635 2.635 0 0 0-.852-1.855c-.8-.551-1.855.4-2.607.8s-1.2-.3-1.4-2.206.451-6.117 1.254-7.22 2.807-1.454 3.459-2.406 1.6-1.755 1.8-3.309c0 0 .15-1.253.451-.752s.15 3.159 2.356 4.111 4.713-.8 4.713-.8l-3.76-9.375-8.022-4.362-9.375-1.755-5.665 3.309-4.713 13.887z" class="cls-3" data-name="Path 12516" transform="translate(-978.328 -623.273)"/>
                        <path id="Path_12517" d="M1010.782 660.938a7.654 7.654 0 0 0-.911 2.152c-.3 1.226.125 3.483.877 4.084s2.2 1.395 2.6.664 1.169-1.318 1.307-2.208c.184-1.189-.367-1.113-.443-1.891s.251-1.83.226-2.707-.529-.952-1.481-1.328-1.531-.071-2.175 1.234z" class="cls-42" data-name="Path 12517" transform="translate(-997.572 -646.802)"/>
                    </g>
                </g>
                <path id="Path_12519" d="M980.639 669.413a.911.911 0 0 1 1.153-.351c.7.351 1.2.7.9 1.1s-.451.4-.451.7a15.513 15.513 0 0 1 .1 2.206c-.1.4-.7 3.058-1.254 3.309s-4.061 2.908-5.114 3.108a10.163 10.163 0 0 1-3.409.3 30.167 30.167 0 0 0-6.016-.5c-.953.2-6.417 1.3-6.417 1.3a8.317 8.317 0 0 1 3.459-1.253 21.855 21.855 0 0 1 6.818-.3c1.5.251 3.158.852 5.064 0a21.566 21.566 0 0 0 4.211-2.356c.4-.4 1.153-.6 1.354-1.053a7.6 7.6 0 0 0 .852-2.607c-.1-.6.1-1.2-.15-1.6s-1.4-.399-1.1-2.003z" class="cls-11" data-name="Path 12519" transform="translate(-859.926 -652.675)"/>
                <path id="Path_12520" d="M1031.024 803.124a6.666 6.666 0 0 1 1.7-.067c.268.134.3.668-.267.568a7.721 7.721 0 0 1-1.433-.501z" class="cls-43" data-name="Path 12520" transform="translate(-904.178 -736.351)"/>
                <path id="Path_12521" d="M879.1 792.18s-.3.768-.017 1 .7.334.735.117-.104-1.468-.718-1.117z" class="cls-36" data-name="Path 12521" transform="translate(-809.253 -729.552)"/>
                <path id="Path_12522" d="M1033.062 831.274c-.1.012 1.437-.2 1.6 0s.1.869-.434.735-.899-.768-1.166-.735z" class="cls-43" data-name="Path 12522" transform="translate(-905.447 -753.94)"/>
                <g id="Group_2601" data-name="Group 2601" transform="translate(57.648 62.525)">
                    <path id="Path_12523" d="M848.226 830.84a1.333 1.333 0 0 1-1.266-.664 1.16 1.16 0 0 1 .529-1.425.5.5 0 0 1 .536.847.431.431 0 0 0-.147.163.821.821 0 0 0 .552.051c.078-.02.166-.06.182-.112l.043-.142a6.773 6.773 0 0 1-.131-1.786c0-1.972 2.1-16.139 3.158-22.555a3.431 3.431 0 0 1-.27.006 2.989 2.989 0 0 1-2.635-1.292 1.522 1.522 0 0 1-.018-1.281c.027-.067.058-.133.092-.2a6.24 6.24 0 0 1-.3-.915l-.01-.034c-.377-1.359 1.047-3.247 2.3-4.912l.252-.336a6.951 6.951 0 0 1 1.039-1.077 3.894 3.894 0 0 1 .589-.956c1.358-1.561 2.187-2.432 3.425-2.167a2.759 2.759 0 0 1 1.055.534l.046-.006c1.123-.147 1.45.234 1.527.579a.956.956 0 0 1-.453.939 1.977 1.977 0 0 1-.185 1.72 8.479 8.479 0 0 1-.919 1.116c-.956 2.449-3.311 7.016-3.339 7.071a2.168 2.168 0 0 1-1.144.985c-1.022 6.14-3.211 20.887-3.211 22.78a5.6 5.6 0 0 0 .1 1.54.963.963 0 0 1-.056.676 1.29 1.29 0 0 1-1.239.848.79.79 0 0 1-.102.005zm1.458-27.8a.51.51 0 0 0-.01.443 2.07 2.07 0 0 0 1.747.738 2.892 2.892 0 0 0 .433-.029c.162-.95.287-1.63.36-1.937.086-.367.238-.876.439-1.464a2.621 2.621 0 0 1-.385.18 5.011 5.011 0 0 0-.866.426 3.163 3.163 0 0 1-.382.62c-.493.61-.901 1.002-1.335 1.024zm4.4-3.239a20.276 20.276 0 0 0-.89 2.684c-.046.2-.117.567-.208 1.077l.011-.02a118.405 118.405 0 0 0 2.352-4.8c-.428.376-.861.739-1.269 1.058zm-2.647-2.326c-.975 1.3-2.153 2.937-1.925 3.758l.01.034.069.245a7 7 0 0 1 1.021-.8 16.822 16.822 0 0 0 .65-2.443c.053-.263.111-.529.171-.792zm1.527-1.68a17.766 17.766 0 0 0-.723 2.686c-.118.543-.233 1.074-.365 1.567l.061-.022a6.25 6.25 0 0 0 1.324-.852c.955-2.362 2.359-5.051 3.571-5.436l.106-.035-.027-.03a12.1 12.1 0 0 0-3.95 2.127zm4.46-1.2c-.1.036-.191.07-.288.1-.542.172-1.359 1.451-2.12 3 .485-.441.954-.891 1.346-1.3a4.312 4.312 0 0 0 .257-.835.5.5 0 0 1 .735-.383.92.92 0 0 0 .066-.584zm-1.68-1.707a1.31 1.31 0 0 0-.819.365 4.234 4.234 0 0 0 .822-.365z" class="cls-6" data-name="Path 12523" transform="translate(-846.875 -792.007)"/>
                </g>
                <path id="Path_12524" d="M894.575 783.1s-.305.767-.022 1 .7.338.735.121-.088-1.464-.713-1.121z" class="cls-36" data-name="Path 12524" transform="translate(-818.914 -723.888)"/>
                <path id="Path_12525" d="M890.169 788.2s.454.572.76.459.568-.388.417-.51-1.17-.575-1.177.051z" class="cls-36" data-name="Path 12525" transform="translate(-816.252 -726.905)"/>
                <g id="Group_2602" data-name="Group 2602" transform="translate(69.859 61.858)">
                    <path id="Line_42" d="M0 .936L3.075 0" class="cls-6" data-name="Line 42" transform="translate(.401 .402)"/>
                    <path id="Path_12526" d="M879.772 791.974a.4.4 0 0 1-.117-.785l3.075-.936a.4.4 0 0 1 .234.767l-3.075.936a.394.394 0 0 1-.117.018z" class="cls-6" data-name="Path 12526" transform="translate(-879.371 -790.235)"/>
                </g>
                <g id="Group_2603" data-name="Group 2603" transform="translate(74.016 59.377)">
                    <path id="Path_12527" d="M890.854 785.779a.4.4 0 0 1-.393-.328 1.777 1.777 0 0 1 .337-1.415 1.4 1.4 0 0 1 1.232-.393.4.4 0 1 1-.076.8.66.66 0 0 0-.564.135 1.011 1.011 0 0 0-.139.732.4.4 0 0 1-.325.464.415.415 0 0 1-.072.005z" class="cls-6" data-name="Path 12527" transform="translate(-890.433 -783.632)"/>
                </g>
                <path id="Path_12528" d="M898.533 783.237s.468-.218.669.15.468 1.086.134 1.17-1.07-.602-.803-1.32z" class="cls-36" data-name="Path 12528" transform="translate(-821.437 -723.968)"/>
                <path id="Path_12529" d="M905.53 777.467s.666.511.969.257.512-.685.31-.774-1.454-.241-1.279.517z" class="cls-36" data-name="Path 12529" transform="translate(-825.83 -720.037)"/>
                <path id="Path_12530" d="M905.667 779.852a.4.4 0 0 1 .235-.627.389.389 0 0 1 .255.049c.366.2.978.666.741.915-.198.211-.898.118-1.231-.337z" class="cls-36" data-name="Path 12530" transform="translate(-825.878 -721.501)"/>
                <g id="Group_2604" data-name="Group 2604" transform="translate(77.313 57.983)">
                    <path id="Path_12531" d="M899.607 782.132a.407.407 0 0 1-.009-.813c.574-.014 2.215-.228 2.215-1a.4.4 0 0 1 .4-.4.407.407 0 0 1 .4.408c0 1.365-1.885 1.8-3 1.8z" class="cls-6" data-name="Path 12531" transform="translate(-899.207 -779.921)"/>
                </g>
                <g id="Group_2605" data-name="Group 2605" transform="translate(79.986 55.436)">
                    <path id="Path_12532" d="M906.721 775.295a.39.39 0 0 1-.4-.374 2.257 2.257 0 0 1 .619-1.69.4.4 0 0 1 .5.632 1.488 1.488 0 0 0-.318 1.031.386.386 0 0 1-.387.4z" class="cls-6" data-name="Path 12532" transform="translate(-906.319 -773.144)"/>
                </g>
                <path id="Path_12533" d="M963.927 822.713a.435.435 0 0 1 .19-.756c.245-.054.5-.034.519.28a.471.471 0 0 1-.709.476z" class="cls-6" data-name="Path 12533" transform="translate(-862.196 -748.164)"/>
                <path id="Line_43" d="M.201 0L0 .815" class="cls-44" data-name="Line 43" transform="translate(97.024 72.876)"/>
                <path id="Path_12534" d="M1089.771 759.461a4.634 4.634 0 0 1 .858 2.464c-.09 1.129.219 1.821-.858 1.989s-1.688-2.8-1.688-2.8z" class="cls-45" data-name="Path 12534" transform="translate(-939.796 -709.166)"/>
                <g id="Group_2607" data-name="Group 2607" transform="translate(95.683 167.258)">
                    <path id="Path_12535" d="M959.934 1075.093s-4.126 1.052-7.97-3.393c0 0-.634-1.655-1.445-.659-.648.794.477 2.743.31 4.032s-.735 3.562-1.37 4.063l-.268-.2-1 1.487s-.217.3 0 .451 4.646 2.039 4.646 2.039l1.07-1.07s3.14 1.437 4.077 2.54 14.64 2.891 15.509 2.231a1.938 1.938 0 0 0-.434-3.267c-1.6-.969-4.813-1.838-6.919-3.944s-2.707-3.476-2.54-4.913a12.256 12.256 0 0 1 .343-1.887.266.266 0 0 0-.114-.3c-.55-.349-2.238-1.326-2.293-.18a3.594 3.594 0 0 1-1.602 2.97z" class="cls-3" data-name="Path 12535" transform="translate(-948.092 -1070.722)"/>
                    <g id="Group_2606" class="cls-46" data-name="Group 2606">
                        <path id="Path_12536" d="M947.59 1092.058s7.144 3.856 10.127 5.018 13.771 2.412 15.008 2.435.318.889.318.889l-14.222-1.23-5.941-2.319-1.128.15-5.515-2.758z" class="cls-20" data-name="Path 12536" transform="translate(-946.933 -1084.041)"/>
                        <path id="Path_12537" d="M987.15 1078.327a7.843 7.843 0 0 0-2.131 2.388c-1.1 1.748.092 4.405 1.763 5.408s4.98 2.055 6.209 1.8 1.73-1.8 1.73-1.8z" class="cls-21" data-name="Path 12537" transform="translate(-970.877 -1075.469)"/>
                    </g>
                </g>
                <g id="Group_2611" data-name="Group 2611" transform="translate(0 112.522)">
                    <path id="Path_12539" d="M694.281 971.4l22.3 24.861a3.228 3.228 0 0 0 4.545.247l56.2-50.411a3.228 3.228 0 0 0 .247-4.545l-7.055-7.866a26.124 26.124 0 0 0-36.783-2l-39.208 35.168a3.228 3.228 0 0 0-.246 4.546z" class="cls-6" data-name="Path 12539" transform="translate(-693.462 -925.06)"/>
                    <g id="Group_2610" class="cls-47" data-name="Group 2610">
                        <g id="Group_2609" data-name="Group 2609" transform="translate(9.191 1.354)">
                            <path id="Rectangle_1680" d="M0 0h3.095v86.741H0z" class="cls-9" data-name="Rectangle 1680" transform="rotate(-131.91 14.465 29.652)"/>
                            <g id="Group_2608" class="cls-48" data-name="Group 2608">
                                <path id="Rectangle_1681" d="M0 0h.774v89.882H0z" class="cls-27" data-name="Rectangle 1681" transform="rotate(-131.889 13.543 30.176)"/>
                            </g>
                        </g>
                    </g>
                </g>
                <rect id="Rectangle_1683" width="8.716" height="2.152" class="cls-27" data-name="Rectangle 1683" rx="1.076" transform="rotate(-131.91 69.982 46.621)"/>
                <g id="Group_2612" data-name="Group 2612" transform="translate(17.464 173.029)">
                    <circle id="Ellipse_366" cx="7.601" cy="7.601" r="7.601" class="cls-27" data-name="Ellipse 366" transform="rotate(-88.341 7.821 7.598)"/>
                    <circle id="Ellipse_367" cx="5.375" cy="5.375" r="5.375" class="cls-9" data-name="Ellipse 367" transform="rotate(-80.1 8.052 5.144)"/>
                </g>
                <g id="Group_2619" data-name="Group 2619" transform="translate(55.726 134.619)">
                    <rect id="Rectangle_1684" width="13.719" height="5.667" class="cls-10" data-name="Rectangle 1684" rx=".868" transform="rotate(-41.632 11.986 4.557)"/>
                    <g id="Group_2618" class="cls-49" data-name="Group 2618">
                        <g id="Group_2617" data-name="Group 2617" transform="translate(-.027 .098)">
                            <path id="Rectangle_1685" d="M0 0h15.004v4.261H0z" class="cls-11" data-name="Rectangle 1685" transform="matrix(.747 -.664 .664 .747 0 9.968)"/>
                            <g id="Group_2616" class="cls-50" data-name="Group 2616">
                                <g id="Group_2615" data-name="Group 2615" transform="translate(7.566 2.125)">
                                    <g id="Group_2614" data-name="Group 2614">
                                        <g id="Group_2613" data-name="Group 2613">
                                            <path id="Line_44" d="M0 0l.054.061" class="cls-51" data-name="Line 44"/>
                                            <path id="Line_45" d="M0 0l.378.425" class="cls-52" data-name="Line 45" transform="translate(.162 .182)"/>
                                            <path id="Line_46" d="M0 0l.054.061" class="cls-51" data-name="Line 46" transform="translate(3.833 4.312)"/>
                                        </g>
                                    </g>
                                </g>
                            </g>
                        </g>
                        <path id="Path_12543" d="M848.587 1017.192l1.663-.336-.54 1.608z" class="cls-11" data-name="Path 12543" transform="translate(-846.021 -1004.459)"/>
                        <path id="Path_12544" d="M839.577 1007.709l1.663-.336-.54 1.608z" class="cls-11" data-name="Path 12544" transform="translate(-840.397 -998.539)"/>
                    </g>
                </g>
                <path id="Rectangle_1688" d="M0 0h7.973v8.008a3.4 3.4 0 0 1-3.4 3.4H3.4a3.4 3.4 0 0 1-3.4-3.4V0z" class="cls-27" data-name="Rectangle 1688" transform="rotate(48.09 -121.824 137.942)"/>
            </g>
        </g>
    </g>
</svg>
