<svg xmlns="http://www.w3.org/2000/svg" id="_001-edit" width="23.478" height="23.04" data-name="001-edit" viewBox="0 0 23.478 23.04">
    <defs>
        <style>
            .cls-1{fill:#fff}
        </style>
    </defs>
    <g id="Group_2569" data-name="Group 2569">
        <path id="Path_12441" d="M28.321 114.3H6.517a.821.821 0 0 0-.817.817.834.834 0 0 0 .817.817h21.824a.821.821 0 0 0 .817-.817.838.838 0 0 0-.837-.817z" class="cls-1" data-name="Path 12441" transform="translate(-5.68 -92.894)"/>
        <path id="Path_12442" d="M5.62 21.071l-.02 3.886a.844.844 0 0 0 .239.6.8.8 0 0 0 .578.239l3.867-.02a.8.8 0 0 0 .578-.239l13.353-13.355a.842.842 0 0 0 0-1.176l-3.826-3.867a.842.842 0 0 0-1.176 0L16.542 9.83 5.859 20.493a.888.888 0 0 0-.239.578zM19.811 8.893l2.689 2.691-1.513 1.516-2.687-2.692 1.515-1.515zM7.274 21.43l9.846-9.846 2.691 2.691L9.965 24.1l-2.711.02z" class="cls-1" data-name="Path 12442" transform="translate(-5.6 -6.9)"/>
    </g>
</svg>
