<svg xmlns="http://www.w3.org/2000/svg" width="24" height="24" viewBox="0 0 24 24">
    <g id="prefix__Camera_Icon" data-name="Camera Icon" transform="translate(-285 -17)">
        <path id="prefix__Rectangle_1862" d="M0 0H24V24H0z" data-name="Rectangle 1862" transform="translate(285 17)" style="fill:#fff;opacity:0"/>
        <path id="prefix___2G" d="M5.457 12.568c-2.313 0-3.86 0-4.137-.011a1.3 1.3 0 0 1-.938-.415A1.7 1.7 0 0 1 0 10.97V4.159A1.906 1.906 0 0 1 .561 2.7a1.887 1.887 0 0 1 1.258-.465h2.2l.023-.03c.249-.329.712-.94 1.121-1.453a1.63 1.63 0 0 1 1.381-.74H7.264C7.9 0 8.844 0 9.586 0c.466 0 .788 0 .957.005a1.857 1.857 0 0 1 1.469.743l.045.05c.075.086.589.738.964 1.215l.175.222h2.036a1.879 1.879 0 0 1 1.853 1.591.505.505 0 0 1 .008.093c0 .051-.056 5.76 0 7.007a1.58 1.58 0 0 1-.472 1.334 1.325 1.325 0 0 1-.873.307 1.445 1.445 0 0 1-.172-.01h-1.537c-1.996.005-5.708.011-8.582.011zM1.8 3.309a.781.781 0 0 0-.514.182.9.9 0 0 0-.213.669V11a.672.672 0 0 0 .1.422.225.225 0 0 0 .175.059c.251.007 1.611.011 4.041.011 1.641 0 4.693 0 9.911-.011h.3a.088.088 0 0 1 .035-.008.156.156 0 0 1 .044.008l.023.006a.248.248 0 0 0 .04 0 .265.265 0 0 0 .169-.049.675.675 0 0 0 .1-.476c-.053-1.257 0-6.769 0-7a.8.8 0 0 0-.788-.658h-2.3a.535.535 0 0 1-.422-.2c-.44-.563-1.179-1.5-1.259-1.594l-.042-.06a.808.808 0 0 0-.679-.372c-.166 0-.493-.005-.944-.005-.853 0-1.9.006-2.307.009H6.544c-.182 0-.281.014-.538.336-.579.727-1.276 1.66-1.285 1.673a.532.532 0 0 1-.43.215H1.8zm6.838 6.728a3.5 3.5 0 1 1 3.5-3.5 3.507 3.507 0 0 1-3.499 3.5zm0-5.935a2.431 2.431 0 1 0 2.43 2.431A2.433 2.433 0 0 0 8.639 4.1z" data-name="2G" transform="translate(288.75 22.564)" style="fill:#0672ba"/>
    </g>
</svg>
