<svg xmlns="http://www.w3.org/2000/svg" id="prefix__Things_Icon" width="35" height="35" data-name="Things Icon" viewBox="0 0 35 35">
    <rect id="prefix__Rectangle_1852" width="35" height="35" data-name="Rectangle 1852" rx="10" style="fill:#0672ba"/>
    <g id="prefix__Group_3340" data-name="Group 3340" transform="translate(-274 -389.853)">
        <path id="prefix__Path_13000" d="M293.971 415.816v-.016a.057.057 0 00.032-.053v-1.053a.06.06 0 00-.058-.062h-.583l-.958-3.355a1.1 1.1 0 00-.283-1.883c-.367-2.554-.552-6.7-.624-8.8a1.219 1.219 0 00.324-.865v-1.318a1.056 1.056 0 00-.563-1.017v-1.348c0-.083-.092-.153-.205-.153s-.209.069-.209.153v1.354a1.069 1.069 0 00-.548 1.012v1.318a1.217 1.217 0 00.324.865c-.075 2.1-.257 6.238-.623 8.791a1.1 1.1 0 00-.291 1.917l-.951 3.333h-.578a.062.062 0 00-.061.062v1.053a.055.055 0 00.026.047v.022L286 419.658h2.14s.218-2.82 2.916-2.852c2.7.032 2.919 2.852 2.919 2.852h2.14zm0 0" data-name="Path 13000" style="fill:#fff"/>
    </g>
</svg>
