<svg xmlns="http://www.w3.org/2000/svg" id="prefix__Hotels_icon" width="35" height="35" data-name="Hotels icon" viewBox="0 0 35 35">
    <rect id="prefix__Rectangle_1852" width="35" height="35" data-name="Rectangle 1852" rx="10" style="fill:#0672ba"/>
    <g id="prefix__Group_3321" data-name="Group 3321" transform="translate(-96.7 -282.882)">
        <path id="prefix__Path_12996" d="M118.016 297.889v-4.383a1.276 1.276 0 00.021-.23c0-.152-.007-.3-.021-.451v-.174l-.028-.012a4.248 4.248 0 00-4.12-3.756 4.291 4.291 0 00-4.169 4.394 1.138 1.138 0 102.274 0 1.9 1.9 0 113.79 0c-.024 1.668-3.917 2.32-3.917 2.32a2.525 2.525 0 00-1.962 2.524v10.215a2.488 2.488 0 002.4 2.571h3.358a2.457 2.457 0 002.37-2.3v.009-.05c.007-.078.022-.154.022-.234v-10.209c.004-.08-.01-.156-.018-.234zm-2.325 6.71h-.759v-1.775h-1.908v1.776h-.759v-4.062h.759v1.747h1.908v-1.747h.759z" data-name="Path 12996" style="fill:#fff"/>
    </g>
</svg>
