<svg xmlns="http://www.w3.org/2000/svg" width="24" height="24" viewBox="0 0 24 24">
    <defs>
        <style>
            .prefix__cls-2{fill:#0672ba}
        </style>
    </defs>
    <g id="prefix__Bell_" data-name="Bell" transform="translate(-20 -53)">
        <path id="prefix__Rectangle_1871" d="M0 0H24V24H0z" data-name="Rectangle 1871" transform="translate(20 53)" style="fill:#fff;opacity:0"/>
        <g id="prefix__Group_3606" data-name="Group 3606" transform="translate(23 55)">
            <path id="prefix__Path_12955" d="M715.233 2223.158a12.028 12.028 0 01-3.125-8.751 5.03 5.03 0 00-2.909-5 6.819 6.819 0 00-6.145 0 5.027 5.027 0 00-2.909 5 12.028 12.028 0 01-3.126 8.751 15.191 15.191 0 0018.214 0z" class="prefix__cls-2" data-name="Path 12955" transform="translate(-697.019 -2208.675)"/>
            <path id="prefix__Path_12956" d="M704.8 2229.534a2.108 2.108 0 004.1 0c-.1-.069-4.1 0-4.1 0z" class="prefix__cls-2" data-name="Path 12956" transform="translate(-697.744 -2210.617)"/>
        </g>
    </g>
</svg>
