<svg xmlns="http://www.w3.org/2000/svg" id="prefix__Under_Review" width="30" height="30" data-name="Under Review" viewBox="0 0 30 30">
    <defs>
        <style>
            .prefix__cls-2{fill:#fff}
        </style>
    </defs>
    <path id="prefix__Oval" d="M15 0A15 15 0 1 1 0 15 15 15 0 0 1 15 0z" style="fill:#cb6113"/>
    <g id="prefix__Group_307" data-name="Group 307" transform="translate(4.772 7.772)">
        <path id="prefix__Path_1066" d="M251.045 543.194c-2.705 0-4.9-1.845-4.9-4.113s2.2-4.112 4.9-4.112 4.907 1.845 4.907 4.112-2.202 4.113-4.907 4.113zm0-7.409c-2.153 0-3.9 1.478-3.9 3.3s1.752 3.3 3.9 3.3 3.907-1.479 3.907-3.3-1.752-3.3-3.907-3.3z" class="prefix__cls-2" data-name="Path 1066" transform="translate(-240.824 -531.999)"/>
        <path id="prefix__Path_1067" d="M251.045 542.377a2.368 2.368 0 1 1 2.313-2.368 2.343 2.343 0 0 1-2.313 2.368zm0-3.735a1.369 1.369 0 1 0 1.313 1.367 1.341 1.341 0 0 0-1.313-1.367z" class="prefix__cls-2" data-name="Path 1067" transform="translate(-240.824 -532.927)"/>
        <path id="prefix__Path_1068" d="M249.707 546.165c-4.174 0-8.073-2.639-10.176-6.888a.442.442 0 0 1 0-.392c2.1-4.248 6-6.887 10.176-6.887s8.073 2.638 10.176 6.887a.442.442 0 0 1 0 .392c-2.103 4.249-6.002 6.888-10.176 6.888zm-9.285-7.083c1.973 3.829 5.513 6.2 9.285 6.2s7.311-2.37 9.284-6.2c-1.973-3.829-5.512-6.2-9.284-6.2s-7.312 2.371-9.285 6.2z" class="prefix__cls-2" data-name="Path 1068" transform="translate(-239.485 -531.999)"/>
    </g>
</svg>
