<svg xmlns="http://www.w3.org/2000/svg" id="prefix__Others_Icon" width="30" height="30" data-name="Others Icon" viewBox="0 0 30 30">
    <defs>
        <style>
            .prefix__cls-2{fill:#fff}
        </style>
    </defs>
    <rect id="prefix__Rectangle_1852" width="30" height="30" data-name="Rectangle 1852" rx="10" style="fill:#0672ba"/>
    <g id="prefix__Group_3323" data-name="Group 3323" transform="translate(6 6)">
        <path id="prefix__Path_12997" d="M87.175 28.587a1.525 1.525 0 0 0-1.075-1.453 1.519 1.519 0 0 0-2.056-2.055 1.519 1.519 0 0 0-2.907 0 1.519 1.519 0 0 0-2.056 2.055 1.519 1.519 0 0 0 0 2.907 1.52 1.52 0 0 0 2.053 2.059 1.519 1.519 0 0 0 2.907 0 1.519 1.519 0 0 0 2.059-2.059 1.524 1.524 0 0 0 1.075-1.454zM82.588 30.5a1.911 1.911 0 1 1 1.912-1.913 1.912 1.912 0 0 1-1.912 1.913z" class="prefix__cls-2" data-name="Path 12997" transform="translate(-73.413 -24)"/>
        <path id="prefix__Path_12998" d="M80.411 43.133V44.7h1.529v-.765A9.939 9.939 0 0 0 72 34a9.17 9.17 0 0 0 8.411 9.133z" class="prefix__cls-2" data-name="Path 12998" transform="translate(-72 -26.354)"/>
        <path id="prefix__Path_12999" d="M93.45 34a9.172 9.172 0 0 1-6.934 8.888 11.4 11.4 0 0 0-1.347-4.441A9.929 9.929 0 0 1 93.45 34z" class="prefix__cls-2" data-name="Path 12999" transform="translate(-75.1 -26.354)"/>
    </g>
</svg>
