<svg xmlns="http://www.w3.org/2000/svg" width="97.686" height="68.475" viewBox="0 0 97.686 68.475">
    <defs>
        <style>
            .cls-1{fill:#0672ba}.cls-2{fill:#010101;opacity:.25}
        </style>
    </defs>
    <g id="Logo">
        <g id="Group_3232" data-name="Group 3232" transform="translate(0 53.573)">
            <g id="Logo_Blue" data-name="Logo Blue">
                <path id="Path_12928" d="M690.613 500.871v2.7h-3.869V515.2h-2.825v-11.627h-3.848v-2.7z" class="cls-1" data-name="Path 12928" transform="translate(-680.071 -500.585)"/>
                <path id="Path_12929" d="M754.114 515.2l-2.9-4.975h-2.139v4.975h-2.825v-14.33h5.732a4.753 4.753 0 0 1 4.77 4.749 4.361 4.361 0 0 1-.757 2.467 4.739 4.739 0 0 1-2.006 1.709l3.173 5.4zm-5.036-11.689v4.237h2.907a1.8 1.8 0 0 0 1.372-.624 2.147 2.147 0 0 0 .573-1.5 2.111 2.111 0 0 0-.573-1.494 1.812 1.812 0 0 0-1.372-.614z" class="cls-1" data-name="Path 12929" transform="translate(-734.135 -500.585)"/>
                <path id="Path_12930" d="M818.564 515.2l-.911-2.579h-5.886l-.86 2.579h-3.05l5.015-14.33h3.5l5.055 14.33zm-5.877-5.22h4.033l-2.068-5.855z" class="cls-1" data-name="Path 12930" transform="translate(-784.458 -500.585)"/>
                <path id="Path_12931" d="M882.983 515.2l-4.81-14.33h3.071l3.5 11.017 3.476-11.017h3.091l-4.831 14.33z" class="cls-1" data-name="Path 12931" transform="translate(-841.899 -500.585)"/>
                <path id="Path_12932" d="M960.26 512.5h6.04v2.7h-8.864v-14.33h8.764v2.7h-5.94v3.05h5.424v2.661h-5.424z" class="cls-1" data-name="Path 12932" transform="translate(-906.647 -500.585)"/>
                <path id="Path_12933" d="M1019.511 512.5h5.466v2.7h-8.291v-14.33h2.825z" class="cls-1" data-name="Path 12933" transform="translate(-955.049 -500.585)"/>
                <path id="Path_12934" d="M1070.682 500.871h2.825V515.2h-2.825z" class="cls-1" data-name="Path 12934" transform="translate(-999.158 -500.585)"/>
                <path id="Path_12935" d="M1101.019 514.209a6.4 6.4 0 0 1-3.582-.952 5.09 5.09 0 0 1-2.047-2.59l2.416-1.413a3.218 3.218 0 0 0 3.3 2.19 2.836 2.836 0 0 0 1.74-.43 1.353 1.353 0 0 0-.123-2.262 10.443 10.443 0 0 0-2.416-.911 14.908 14.908 0 0 1-1.627-.573 6.982 6.982 0 0 1-1.33-.768 3.123 3.123 0 0 1-1.013-1.218 3.98 3.98 0 0 1-.348-1.719 3.837 3.837 0 0 1 1.382-3.1 5.013 5.013 0 0 1 3.326-1.156 5.533 5.533 0 0 1 3.06.85 5.707 5.707 0 0 1 2.057 2.364l-2.375 1.371a2.861 2.861 0 0 0-2.743-1.842 2.164 2.164 0 0 0-1.382.4 1.26 1.26 0 0 0-.5 1.034 1.3 1.3 0 0 0 .563 1.1 7.866 7.866 0 0 0 2.16.911q.655.2.993.317t.921.348a5.6 5.6 0 0 1 .9.44 7.187 7.187 0 0 1 .726.553 2.834 2.834 0 0 1 .624.716 4.1 4.1 0 0 1 .522 2.027 3.841 3.841 0 0 1-1.443 3.152 5.788 5.788 0 0 1-3.761 1.161z" class="cls-1" data-name="Path 12935" transform="translate(-1019.342 -499.307)"/>
                <path id="Path_12936" d="M1166.525 500.871v2.7h-3.869V515.2h-2.825v-11.627h-3.848v-2.7z" class="cls-1" data-name="Path 12936" transform="translate(-1068.839 -500.585)"/>
            </g>
        </g>
        <g id="B_Icon_Logo_Blue" data-name="B Icon Logo Blue" transform="translate(31.351)">
            <path id="Rectangle_1754" d="M0 0h34.984v4.177H0z" class="cls-1" data-name="Rectangle 1754" transform="translate(0 1.135)"/>
            <path id="Rectangle_1755" d="M0 0h37.193v4.177H0z" class="cls-1" data-name="Rectangle 1755" transform="rotate(-90 24.349 12.844)"/>
            <path id="Rectangle_1756" d="M0 0h37.193v4.177H0z" class="cls-1" data-name="Rectangle 1756" transform="rotate(-90 27.567 9.626)"/>
            <path id="Rectangle_1757" d="M0 0h34.984v4.177H0z" class="cls-1" data-name="Rectangle 1757" transform="translate(0 7.572)"/>
            <path id="Rectangle_1758" d="M0 0h4.177v1.025H0z" class="cls-2" data-name="Rectangle 1758" transform="translate(17.941 11.749)"/>
            <path id="Rectangle_1759" d="M0 0h4.177v1.025H0z" class="cls-2" data-name="Rectangle 1759" transform="translate(11.504 11.749)"/>
            <path id="Rectangle_1760" d="M0 0h4.177v1.025H0z" class="cls-2" data-name="Rectangle 1760" transform="translate(17.941 5.313)"/>
            <path id="Rectangle_1761" d="M0 0h4.177v1.025H0z" class="cls-2" data-name="Rectangle 1761" transform="translate(11.504 5.313)"/>
        </g>
    </g>
</svg>
