<svg xmlns="http://www.w3.org/2000/svg" width="53.129" height="145.706" viewBox="0 0 53.129 145.706">
    <defs>
        <style>
            .cls-1,.cls-3{fill:none;stroke-linecap:round}.cls-1{stroke:#505050}.cls-2{fill:#494949}.cls-3{stroke:#b2b2b2;opacity:.333}.cls-4{fill:#fff}.cls-5{fill:#4b4b4b}
        </style>
    </defs>
    <g id="spider" transform="translate(.659 .5)">
        <path id="Path_40" d="M61.87 123.8c0 4.923-3.352 15.777-7.666 16.564" class="cls-1" data-name="Path 40" transform="translate(-39.228 3.5)"/>
        <path id="Path_40_Copy_4" d="M54.846 117.359c-2.753 4.081-11.6 11.205-15.618 9.445" class="cls-1" data-name="Path 40 Copy 4" transform="translate(-39.228 3.5)"/>
        <path id="Path_40_Copy_5" d="M73.754 119.249c4.923 0 15.763 6.058 17.3 10.2" class="cls-1" data-name="Path 40 Copy 5" transform="translate(-39.228 3.5)"/>
        <path id="Path_40_Copy" d="M71.321 123.118c-1.191 4.776-.564 16.119 3.431 17.926" class="cls-1" data-name="Path 40 Copy" transform="translate(-39.228 3.5)"/>
        <path id="Star_2" d="M65.5 130.822l-1.569 3.118-1.075-3.321-2.027 2.842-.556-3.446-2.437 2.5-.023-3.49-2.79 2.1.51-3.453-3.077 1.647 1.031-3.335-3.287 1.155L51.724 124l-3.431.642 1.989-2.868-3.489.111 2.4-2.531-3.465-.423 2.762-2.134-3.359-.947 3.055-1.687-3.175-1.449 3.277-1.2-2.913-1.914 3.422-.687-2.59-2.339 3.487-.157-2.2-2.707 3.47.377-1.764-3.015 3.372.9-1.284-3.246 3.194 1.407-.773-3.4 2.942 1.878-.251-3.482 2.621 2.305.29-3.478 2.238 2.678.818-3.393 1.8 2.988L65.5 93l1.326 3.229 1.8-2.988.818 3.393 2.238-2.678.29 3.478 2.628-2.305-.244 3.482 2.942-1.878-.773 3.4 3.194-1.407-1.283 3.246 3.372-.9-1.764 3.012 3.47-.377-2.2 2.707 3.487.157-2.601 2.339 3.422.687-2.917 1.916 3.277 1.2-3.175 1.449 3.055 1.688-3.359.947 2.762 2.134-3.465.423 2.4 2.531-3.489-.111 1.989 2.868-3.424-.642 1.528 3.138-3.293-1.158 1.031 3.335-3.077-1.647.51 3.453-2.79-2.1-.023 3.49-2.437-2.5-.555 3.446-2.027-2.842-1.075 3.321z" class="cls-2" data-name="Star 2" transform="translate(-39.228 3.5)"/>
        <path id="Line" d="M0 0v97.02" class="cls-3" transform="translate(26.272)"/>
        <g id="Group_6" data-name="Group 6" transform="translate(14.772 111.5)">
            <circle id="Oval_3" cx="6" cy="6" r="6" class="cls-4" data-name="Oval 3"/>
            <circle id="Oval_3_Copy" cx="2.5" cy="2.5" r="2.5" class="cls-5" data-name="Oval 3 Copy" transform="translate(5 4)"/>
        </g>
        <g id="Group_6_Copy" data-name="Group 6 Copy" transform="translate(30.772 111.5)">
            <circle id="Oval_3-2" cx="6" cy="6" r="6" class="cls-4" data-name="Oval 3"/>
            <circle id="Oval_3_Copy-2" cx="2.5" cy="2.5" r="2.5" class="cls-5" data-name="Oval 3 Copy" transform="translate(5 4)"/>
        </g>
    </g>
</svg>
