<svg xmlns="http://www.w3.org/2000/svg" width="157.592" height="114.612" viewBox="0 0 157.592 114.612">
    <defs>
        <style>
            .cls-1{fill:#fff}.cls-2{opacity:.25}
        </style>
    </defs>
    <g id="Travelist_Logo" data-name="Travelist Logo" transform="translate(-108.118 -588.706)">
        <g id="Group_2781" data-name="Group 2781" transform="translate(151.592 588.706)">
            <path id="Rectangle_1712" d="M0 0h69.772v8.331H0z" class="cls-1" data-name="Rectangle 1712" transform="translate(0 2.264)"/>
            <path id="Rectangle_1713" d="M0 0h74.179v8.331H0z" class="cls-1" data-name="Rectangle 1713" transform="rotate(-90 48.562 25.617)"/>
            <path id="Rectangle_1714" d="M0 0h74.179v8.331H0z" class="cls-1" data-name="Rectangle 1714" transform="rotate(-90 54.98 19.199)"/>
            <path id="Rectangle_1715" d="M0 0h69.772v8.331H0z" class="cls-1" data-name="Rectangle 1715" transform="translate(0 15.101)"/>
            <path id="Rectangle_1716" d="M0 0h8.331v2.044H0z" class="cls-2" data-name="Rectangle 1716" transform="translate(35.781 23.432)"/>
            <path id="Rectangle_1717" d="M0 0h8.331v2.044H0z" class="cls-2" data-name="Rectangle 1717" transform="translate(22.944 23.432)"/>
            <path id="Rectangle_1718" d="M0 0h8.331v2.044H0z" class="cls-2" data-name="Rectangle 1718" transform="translate(35.781 10.596)"/>
            <path id="Rectangle_1719" d="M0 0h8.331v2.044H0z" class="cls-2" data-name="Rectangle 1719" transform="translate(22.944 10.596)"/>
        </g>
        <g id="Group_2782" data-name="Group 2782" transform="translate(108.118 679.276)">
            <path id="Path_12750" d="M470.007 888.081v4.36h-6.241V911.2h-4.557v-18.759H453v-4.36z" class="cls-1" data-name="Path 12750" transform="translate(-453 -887.619)"/>
            <path id="Path_12751" d="M487.268 911.2l-4.673-8.024h-3.451v8.024h-4.558v-23.119h9.246a7.667 7.667 0 0 1 7.695 7.662 7.036 7.036 0 0 1-1.222 3.98 7.644 7.644 0 0 1-3.235 2.757l5.118 8.718zm-8.124-18.857v6.836h4.689a2.9 2.9 0 0 0 2.214-1.007 3.465 3.465 0 0 0 .925-2.427 3.407 3.407 0 0 0-.925-2.411 2.925 2.925 0 0 0-2.214-.991z" class="cls-1" data-name="Path 12751" transform="translate(-455.036 -887.619)"/>
            <path id="Path_12752" d="M511.952 911.2l-1.469-4.161h-9.5L499.6 911.2h-4.921l8.092-23.117h5.647l8.156 23.117zm-9.481-8.421h6.507l-3.337-9.445z" class="cls-1" data-name="Path 12752" transform="translate(-456.93 -887.619)"/>
            <path id="Path_12753" d="M525.373 911.2l-7.761-23.117h4.954l5.652 17.773 5.609-17.773h4.986L531.02 911.2z" class="cls-1" data-name="Path 12753" transform="translate(-459.093 -887.619)"/>
            <path id="Path_12754" d="M548.021 906.84h9.742v4.36h-14.3v-23.119H557.6v4.36h-9.577v4.921h8.752v4.293h-8.752z" class="cls-1" data-name="Path 12754" transform="translate(-461.531 -887.619)"/>
            <path id="Path_12755" d="M567.346 906.84h8.818v4.36h-13.375v-23.119h4.557z" class="cls-1" data-name="Path 12755" transform="translate(-463.353 -887.619)"/>
            <path id="Path_12756" d="M580.4 888.081h4.557V911.2H580.4z" class="cls-1" data-name="Path 12756" transform="translate(-465.014 -887.619)"/>
            <path id="Path_12757" d="M597.54 911.613a10.322 10.322 0 0 1-5.779-1.536 8.205 8.205 0 0 1-3.3-4.177l3.9-2.279a5.191 5.191 0 0 0 5.316 3.533 4.578 4.578 0 0 0 2.807-.693 2.183 2.183 0 0 0-.2-3.65 16.86 16.86 0 0 0-3.9-1.469 24 24 0 0 1-2.626-.925 11.282 11.282 0 0 1-2.147-1.239 5.041 5.041 0 0 1-1.635-1.964 6.436 6.436 0 0 1-.562-2.774 6.191 6.191 0 0 1 2.23-5 8.087 8.087 0 0 1 5.366-1.866 8.931 8.931 0 0 1 4.937 1.37 9.211 9.211 0 0 1 3.319 3.815l-3.831 2.212a4.616 4.616 0 0 0-4.423-2.971 3.49 3.49 0 0 0-2.23.644 2.035 2.035 0 0 0-.809 1.667 2.1 2.1 0 0 0 .909 1.767 12.717 12.717 0 0 0 3.484 1.47q1.057.33 1.6.512t1.486.562a8.969 8.969 0 0 1 1.454.71 11.634 11.634 0 0 1 1.172.891 4.586 4.586 0 0 1 1.007 1.156 6.625 6.625 0 0 1 .842 3.27 6.2 6.2 0 0 1-2.329 5.086 9.337 9.337 0 0 1-6.058 1.878z" class="cls-1" data-name="Path 12757" transform="translate(-465.774 -887.571)"/>
            <path id="Path_12758" d="M625.229 888.081v4.36h-6.242V911.2h-4.557v-18.759h-6.208v-4.36z" class="cls-1" data-name="Path 12758" transform="translate(-467.637 -887.619)"/>
        </g>
    </g>
</svg>
